<mxfile host="Electron" modified="2024-04-22T13:32:41.096Z" agent="Mozilla/5.0 (Windows NT 10.0; Win64; x64) AppleWebKit/537.36 (KHTML, like Gecko) draw.io/24.2.5 Chrome/120.0.6099.109 Electron/28.1.0 Safari/537.36" etag="KVZGtPPfGLxa143ZtcvC" version="24.2.5" type="device">
  <diagram id="R2lEEEUBdFMjLlhIrx00" name="Page-1">
    <mxGraphModel dx="2023" dy="709" grid="1" gridSize="10" guides="1" tooltips="1" connect="1" arrows="1" fold="1" page="1" pageScale="1" pageWidth="850" pageHeight="1100" math="0" shadow="0" extFonts="Permanent Marker^https://fonts.googleapis.com/css?family=Permanent+Marker">
      <root>
        <mxCell id="0" />
        <mxCell id="1" parent="0" />
        <mxCell id="Ug88j3oGZVzIs3uNMmil-1" value="&lt;b&gt;TV series&lt;/b&gt;" style="swimlane;childLayout=stackLayout;horizontal=1;startSize=50;horizontalStack=0;rounded=1;fontSize=14;fontStyle=0;strokeWidth=2;resizeParent=0;resizeLast=1;shadow=0;dashed=0;align=center;arcSize=4;whiteSpace=wrap;html=1;" parent="1" vertex="1">
          <mxGeometry x="33" y="40" width="160" height="120" as="geometry" />
        </mxCell>
        <mxCell id="Ug88j3oGZVzIs3uNMmil-2" value="&lt;div&gt;serie_name&lt;/div&gt;" style="align=left;strokeColor=none;fillColor=none;spacingLeft=4;fontSize=12;verticalAlign=top;resizable=0;rotatable=0;part=1;html=1;" parent="Ug88j3oGZVzIs3uNMmil-1" vertex="1">
          <mxGeometry y="50" width="160" height="70" as="geometry" />
        </mxCell>
        <mxCell id="Ug88j3oGZVzIs3uNMmil-3" value="&lt;b&gt;episodes&lt;/b&gt;" style="swimlane;childLayout=stackLayout;horizontal=1;startSize=50;horizontalStack=0;rounded=1;fontSize=14;fontStyle=0;strokeWidth=2;resizeParent=0;resizeLast=1;shadow=0;dashed=0;align=center;arcSize=4;whiteSpace=wrap;html=1;" parent="1" vertex="1">
          <mxGeometry x="576" y="40" width="160" height="120" as="geometry" />
        </mxCell>
        <mxCell id="Ug88j3oGZVzIs3uNMmil-4" value="no_of_epi" style="align=left;strokeColor=none;fillColor=none;spacingLeft=4;fontSize=12;verticalAlign=top;resizable=0;rotatable=0;part=1;html=1;" parent="Ug88j3oGZVzIs3uNMmil-3" vertex="1">
          <mxGeometry y="50" width="160" height="70" as="geometry" />
        </mxCell>
        <mxCell id="Ug88j3oGZVzIs3uNMmil-7" value="&lt;b&gt;director&lt;/b&gt;" style="swimlane;childLayout=stackLayout;horizontal=1;startSize=50;horizontalStack=0;rounded=1;fontSize=14;fontStyle=0;strokeWidth=2;resizeParent=0;resizeLast=1;shadow=0;dashed=0;align=center;arcSize=4;whiteSpace=wrap;html=1;" parent="1" vertex="1">
          <mxGeometry x="345" y="330" width="160" height="140" as="geometry" />
        </mxCell>
        <mxCell id="Ug88j3oGZVzIs3uNMmil-8" value="name&amp;nbsp;" style="align=left;strokeColor=none;fillColor=none;spacingLeft=4;fontSize=12;verticalAlign=top;resizable=0;rotatable=0;part=1;html=1;" parent="Ug88j3oGZVzIs3uNMmil-7" vertex="1">
          <mxGeometry y="50" width="160" height="90" as="geometry" />
        </mxCell>
        <mxCell id="Ug88j3oGZVzIs3uNMmil-16" value="" style="edgeStyle=orthogonalEdgeStyle;fontSize=12;html=1;endArrow=ERoneToMany;startArrow=ERoneToMany;rounded=0;exitX=0.375;exitY=0;exitDx=0;exitDy=0;exitPerimeter=0;entryX=1;entryY=0.5;entryDx=0;entryDy=0;" parent="1" source="Ug88j3oGZVzIs3uNMmil-7" target="Ug88j3oGZVzIs3uNMmil-2" edge="1">
          <mxGeometry width="100" height="100" relative="1" as="geometry">
            <mxPoint x="310" y="210" as="sourcePoint" />
            <mxPoint x="230" y="130" as="targetPoint" />
          </mxGeometry>
        </mxCell>
        <mxCell id="Ug88j3oGZVzIs3uNMmil-28" value="" style="fontSize=12;html=1;endArrow=ERoneToMany;startArrow=ERzeroToMany;rounded=0;entryX=0.5;entryY=0;entryDx=0;entryDy=0;exitX=0;exitY=0.5;exitDx=0;exitDy=0;edgeStyle=orthogonalEdgeStyle;" parent="1" source="Ug88j3oGZVzIs3uNMmil-4" target="Ug88j3oGZVzIs3uNMmil-7" edge="1">
          <mxGeometry width="100" height="100" relative="1" as="geometry">
            <mxPoint x="525" y="120" as="sourcePoint" />
            <mxPoint x="420" y="250" as="targetPoint" />
          </mxGeometry>
        </mxCell>
        <mxCell id="tYJKt2TJLYILBFtgtl5l-6" value="" style="edgeStyle=entityRelationEdgeStyle;fontSize=12;html=1;endArrow=ERoneToMany;rounded=0;entryX=0;entryY=0.5;entryDx=0;entryDy=0;" parent="1" edge="1">
          <mxGeometry width="100" height="100" relative="1" as="geometry">
            <mxPoint x="194" y="100" as="sourcePoint" />
            <mxPoint x="574" y="100" as="targetPoint" />
          </mxGeometry>
        </mxCell>
        <mxCell id="tYJKt2TJLYILBFtgtl5l-7" value="one to many relationship" style="whiteSpace=wrap;html=1;align=center;" parent="1" vertex="1">
          <mxGeometry x="340" y="70" width="100" height="40" as="geometry" />
        </mxCell>
        <mxCell id="tYJKt2TJLYILBFtgtl5l-8" value="" style="edgeStyle=entityRelationEdgeStyle;fontSize=12;html=1;endArrow=ERoneToMany;rounded=0;entryX=0;entryY=0.75;entryDx=0;entryDy=0;exitX=1.008;exitY=0.188;exitDx=0;exitDy=0;exitPerimeter=0;" parent="1" target="Ug88j3oGZVzIs3uNMmil-4" edge="1" source="Ug88j3oGZVzIs3uNMmil-7">
          <mxGeometry width="100" height="100" relative="1" as="geometry">
            <mxPoint x="500" y="320" as="sourcePoint" />
            <mxPoint x="870" y="320" as="targetPoint" />
          </mxGeometry>
        </mxCell>
        <mxCell id="tYJKt2TJLYILBFtgtl5l-9" value="one to many relationship" style="whiteSpace=wrap;html=1;align=center;" parent="1" vertex="1">
          <mxGeometry x="540" y="220" width="100" height="40" as="geometry" />
        </mxCell>
        <mxCell id="tYJKt2TJLYILBFtgtl5l-12" value="many to one relationship" style="whiteSpace=wrap;html=1;align=center;" parent="1" vertex="1">
          <mxGeometry x="300" y="170" width="100" height="40" as="geometry" />
        </mxCell>
        <mxCell id="tYJKt2TJLYILBFtgtl5l-13" value="many to one relationship" style="whiteSpace=wrap;html=1;align=center;" parent="1" vertex="1">
          <mxGeometry x="420" y="160" width="100" height="40" as="geometry" />
        </mxCell>
        <mxCell id="tYJKt2TJLYILBFtgtl5l-18" value="Explanation of ER" style="swimlane;childLayout=stackLayout;horizontal=1;startSize=50;horizontalStack=0;rounded=1;fontSize=14;fontStyle=0;strokeWidth=2;resizeParent=0;resizeLast=1;shadow=0;dashed=0;align=center;arcSize=4;whiteSpace=wrap;html=1;" parent="1" vertex="1">
          <mxGeometry x="70" y="520" width="730" height="280" as="geometry" />
        </mxCell>
        <mxCell id="tYJKt2TJLYILBFtgtl5l-19" value="&lt;p class=&quot;MsoNormal&quot;&gt;&lt;span style=&quot;font-size:10.0pt;line-height:107%&quot;&gt;TV Series&lt;br&gt;and Episode have a one-to-many relationship, &lt;/span&gt;&lt;span style=&quot;font-size:&lt;br/&gt;10.0pt;line-height:107%;font-family:&amp;quot;Segoe UI&amp;quot;,sans-serif;color:#0D0D0D;&lt;br/&gt;background:white&quot;&gt;because one TV series can have multiple episodes, but each&lt;br&gt;episode belongs to only one TV series.&lt;/span&gt;&lt;span style=&quot;font-size:&lt;br/&gt;10.0pt;line-height:107%&quot;&gt;&lt;/span&gt;&lt;/p&gt;&lt;p class=&quot;MsoNormal&quot;&gt;&lt;span style=&quot;font-size:10.0pt;line-height:107%&quot;&gt;TV Series and Actor have a many-to-many relationship, &lt;/span&gt;&lt;span style=&quot;font-size:10.0pt;&lt;br/&gt;line-height:107%;font-family:&amp;quot;Segoe UI&amp;quot;,sans-serif;color:#0D0D0D;background:&lt;br/&gt;white&quot;&gt;because each actor can participate in multiple TV series, and each TV&lt;br&gt;series can have multiple actors.&lt;/span&gt;&lt;span style=&quot;font-size:10.0pt;&lt;br/&gt;line-height:107%&quot;&gt;&lt;/span&gt;&lt;/p&gt;&lt;p class=&quot;MsoNormal&quot;&gt;&lt;span style=&quot;font-size: 10pt; background-color: initial;&quot;&gt;Episode and&amp;nbsp;&lt;/span&gt;&lt;span style=&quot;background-color: initial; font-size: 10pt; line-height: 107%;&quot;&gt;Director have a one-to-many relationship,&amp;nbsp;&lt;/span&gt;&lt;span style=&quot;background-color: initial; font-size: 10pt; font-family: &amp;quot;Segoe UI&amp;quot;, sans-serif; color: rgb(13, 13, 13);&quot;&gt;his is a one-to-many relationship because one director can direct&lt;/span&gt;&lt;/p&gt;&lt;p class=&quot;MsoNormal&quot;&gt;&lt;span style=&quot;font-size:10.0pt;&lt;br/&gt;line-height:107%;font-family:&amp;quot;Segoe UI&amp;quot;,sans-serif;color:#0D0D0D;background:&lt;br/&gt;white&quot;&gt;multiple episodes, but each episode is directed by only one director.&lt;/span&gt;&lt;span style=&quot;font-size:10.0pt;line-height:107%&quot;&gt;&lt;/span&gt;&lt;/p&gt;" style="align=left;strokeColor=none;fillColor=none;spacingLeft=4;fontSize=12;verticalAlign=top;resizable=0;rotatable=0;part=1;html=1;" parent="tYJKt2TJLYILBFtgtl5l-18" vertex="1">
          <mxGeometry y="50" width="730" height="230" as="geometry" />
        </mxCell>
        <mxCell id="drgCoIGZgEyaz-n_Zunb-2" value="&lt;b&gt;Actor&lt;/b&gt;" style="swimlane;childLayout=stackLayout;horizontal=1;startSize=50;horizontalStack=0;rounded=1;fontSize=14;fontStyle=0;strokeWidth=2;resizeParent=0;resizeLast=1;shadow=0;dashed=0;align=center;arcSize=4;whiteSpace=wrap;html=1;" vertex="1" parent="1">
          <mxGeometry x="50" y="340" width="160" height="140" as="geometry" />
        </mxCell>
        <mxCell id="drgCoIGZgEyaz-n_Zunb-3" value="name" style="align=left;strokeColor=none;fillColor=none;spacingLeft=4;fontSize=12;verticalAlign=top;resizable=0;rotatable=0;part=1;html=1;" vertex="1" parent="drgCoIGZgEyaz-n_Zunb-2">
          <mxGeometry y="50" width="160" height="90" as="geometry" />
        </mxCell>
        <mxCell id="drgCoIGZgEyaz-n_Zunb-4" value="" style="edgeStyle=entityRelationEdgeStyle;fontSize=12;html=1;endArrow=ERmany;startArrow=ERmany;rounded=0;exitX=1;exitY=0;exitDx=0;exitDy=0;" edge="1" parent="1" source="drgCoIGZgEyaz-n_Zunb-3">
          <mxGeometry width="100" height="100" relative="1" as="geometry">
            <mxPoint x="50" y="260" as="sourcePoint" />
            <mxPoint x="30" y="150" as="targetPoint" />
          </mxGeometry>
        </mxCell>
        <mxCell id="drgCoIGZgEyaz-n_Zunb-5" value="many to many relationship" style="whiteSpace=wrap;html=1;align=center;" vertex="1" parent="1">
          <mxGeometry x="50" y="230" width="100" height="40" as="geometry" />
        </mxCell>
      </root>
    </mxGraphModel>
  </diagram>
</mxfile>
